<svg width="179" height="59" viewBox="0 0 179 59" fill="none" xmlns="http://www.w3.org/2000/svg">
<path d="M41.1065 36.3031V58.6383L34.2158 51.7477V30.6005L41.1065 36.3031Z" fill="#006CD0"/>
<path d="M11.1677 27.9908L7.36597 24.8978L7.36593 40.6445L11.1677 44.3818L11.1677 27.9908Z" fill="#006CD0"/>
<path d="M29.2258 24.2937L29.226 52.2994L24.4738 56.7375L24.4736 20.6209L29.2258 24.2937Z" fill="#006CD0"/>
<path d="M23.048 8.5149L18.771 4.93868L18.7713 26.77L15.9198 23.9475V50.1127L23.048 58.6384L23.048 8.5149Z" fill="#006CD0"/>
<path d="M15.9198 23.9475L10.9298 28.2244V7.31477C10.9298 7.31477 13.83 4.85738 15.682 3.27541C16.983 2.16412 19.0085 0.424103 19.0085 0.424103V5.4139L15.682 8.26521L15.9198 23.9475Z" fill="#006CD0"/>
<path d="M0 31.3133V48.4212L1.18805 47.2331V30.1253L0 31.3133Z" fill="#006CD0"/>
<path d="M2.61385 46.0451V28.9372L3.80189 27.7492V44.3819L2.61392 45.5699L2.61385 46.0451Z" fill="#006CD0"/>
<path d="M4.98967 42.7185V27.0363L6.17772 25.8483V42.9561L6.17764 41.5305L4.98967 42.7185Z" fill="#006CD0"/>
<path d="M29.7012 33.7357V51.5101L31.1268 50.2758V32.5014L29.7012 33.7357Z" fill="#006CD0"/>
<path d="M32.0771 31.7731L33.5028 30.6005L33.5026 51.0349L32.077 49.8622L32.0771 31.7731Z" fill="#006CD0"/>
<path d="M6.8906 48.6588H4.5145V51.0349H6.8906V48.6588Z" fill="#006CD0"/>
<path d="M9.74212 48.6588H7.36603V51.0349H9.74212V48.6588Z" fill="#006CD0"/>
<path d="M7.36603 51.51H9.74212V53.8861H7.36603V51.51Z" fill="#006CD0"/>
<path d="M6.89069 51.51H4.5146V53.8861H6.89069V51.51Z" fill="#006CD0"/>
<path d="M31.9044 53.411H30.1763V55.139H31.9044V53.411Z" fill="#006CD0"/>
<path d="M33.9783 53.411H32.2503V55.139H33.9783V53.411Z" fill="#006CD0"/>
<path d="M32.2503 55.4846H33.9783V57.2127H32.2503V55.4846Z" fill="#006CD0"/>
<path d="M31.9044 55.4846H30.1764V57.2127H31.9044V55.4846Z" fill="#006CD0"/>
<path d="M57.2169 28L60.8931 20.0084H61.4753L65.1515 28H64.5236L61.0529 20.3737H61.3041L57.8448 28H57.2169ZM58.5641 25.7509L58.7582 25.26H63.5417L63.7358 25.7509H58.5641Z" fill="black"/>
<path d="M68.1814 28V20.0084H73.1249V20.5335H68.5924L68.7637 20.3508V28H68.1814Z" fill="black"/>
<path d="M76.5539 23.6845H80.8809V24.1983H76.5539V23.6845ZM76.6225 27.4748H81.5544V28H76.0402V20.0084H81.3832V20.5335H76.6225V27.4748Z" fill="black"/>
<path d="M90.7942 20.0084H91.3764V28H90.7942V20.0084ZM85.4512 28H84.8689V20.0084H85.4512V28ZM90.8627 24.1983H85.3827V23.6845H90.8627V24.1983Z" fill="black"/>
<path d="M97.1791 28V20.3508L97.3503 20.5335H94.3021V20.0084H100.638V20.5335H97.5901L97.7613 20.3508V28H97.1791Z" fill="black"/>
<path d="M106.877 28.0571C106.283 28.0571 105.731 27.9581 105.221 27.7603C104.719 27.5548 104.281 27.2693 103.908 26.904C103.535 26.5387 103.246 26.1124 103.041 25.6253C102.835 25.1306 102.732 24.5902 102.732 24.0042C102.732 23.4181 102.835 22.8815 103.041 22.3944C103.246 21.8997 103.535 21.4697 103.908 21.1043C104.289 20.739 104.73 20.4574 105.233 20.2595C105.735 20.054 106.283 19.9513 106.877 19.9513C107.44 19.9513 107.965 20.0426 108.452 20.2253C108.947 20.4079 109.369 20.6857 109.719 21.0587L109.354 21.4354C109.012 21.1005 108.631 20.8608 108.212 20.7162C107.801 20.564 107.364 20.4879 106.9 20.4879C106.39 20.4879 105.914 20.5754 105.472 20.7504C105.039 20.9255 104.658 21.1728 104.331 21.4925C104.011 21.8122 103.76 22.1851 103.577 22.6113C103.402 23.0376 103.315 23.5018 103.315 24.0042C103.315 24.5065 103.402 24.9708 103.577 25.397C103.76 25.8232 104.011 26.1962 104.331 26.5158C104.658 26.8355 105.039 27.0829 105.472 27.2579C105.914 27.433 106.39 27.5205 106.9 27.5205C107.364 27.5205 107.801 27.4482 108.212 27.3036C108.631 27.1514 109.012 26.904 109.354 26.5615L109.719 26.9383C109.369 27.3112 108.947 27.5928 108.452 27.7831C107.965 27.9658 107.44 28.0571 106.877 28.0571Z" fill="black"/>
<path d="M114.424 28V20.3508L114.595 20.5335H111.547V20.0084H117.883V20.5335H114.835L115.006 20.3508V28H114.424Z" fill="black"/>
<path d="M120.808 28V20.0084H124.028C124.85 20.0084 125.497 20.1796 125.968 20.5221C126.448 20.8646 126.688 21.3707 126.688 22.0405C126.688 22.7027 126.456 23.2012 125.991 23.5361C125.535 23.871 124.937 24.0384 124.199 24.0384L124.393 23.8101C125.283 23.8101 125.957 23.9851 126.414 24.3353C126.87 24.6854 127.099 25.1991 127.099 25.8765C127.099 26.5539 126.863 27.0791 126.391 27.452C125.919 27.8173 125.204 28 124.245 28H120.808ZM121.39 27.5091H124.256C124.994 27.5091 125.554 27.3759 125.934 27.1095C126.322 26.8355 126.516 26.4131 126.516 25.8423C126.516 25.2638 126.322 24.8452 125.934 24.5864C125.554 24.32 124.994 24.1868 124.256 24.1868H121.39V27.5091ZM121.39 23.7073H124.016C124.678 23.7073 125.188 23.5741 125.546 23.3078C125.911 23.0338 126.094 22.6342 126.094 22.109C126.094 21.5762 125.911 21.1767 125.546 20.9103C125.188 20.6363 124.678 20.4993 124.016 20.4993H121.39V23.7073Z" fill="black"/>
<path d="M134.166 28.0571C133.572 28.0571 133.02 27.9581 132.51 27.7603C132.008 27.5548 131.566 27.2693 131.186 26.904C130.813 26.5311 130.524 26.101 130.318 25.6139C130.113 25.1192 130.01 24.5826 130.01 24.0042C130.01 23.4257 130.113 22.893 130.318 22.4058C130.524 21.9111 130.813 21.4811 131.186 21.1158C131.566 20.7428 132.008 20.4574 132.51 20.2595C133.02 20.054 133.572 19.9513 134.166 19.9513C134.759 19.9513 135.307 20.054 135.81 20.2595C136.32 20.4574 136.761 20.739 137.134 21.1043C137.507 21.4697 137.796 21.8997 138.002 22.3944C138.215 22.8815 138.321 23.4181 138.321 24.0042C138.321 24.5902 138.215 25.1306 138.002 25.6253C137.796 26.1124 137.507 26.5387 137.134 26.904C136.761 27.2693 136.32 27.5548 135.81 27.7603C135.307 27.9581 134.759 28.0571 134.166 28.0571ZM134.166 27.5205C134.676 27.5205 135.147 27.433 135.581 27.2579C136.015 27.0829 136.392 26.8355 136.712 26.5158C137.031 26.1962 137.279 25.8232 137.454 25.397C137.636 24.9708 137.728 24.5065 137.728 24.0042C137.728 23.4942 137.636 23.03 137.454 22.6113C137.279 22.1851 137.031 21.8122 136.712 21.4925C136.392 21.1728 136.015 20.9255 135.581 20.7504C135.147 20.5754 134.676 20.4879 134.166 20.4879C133.656 20.4879 133.184 20.5754 132.75 20.7504C132.316 20.9255 131.936 21.1728 131.608 21.4925C131.289 21.8122 131.037 22.1851 130.855 22.6113C130.68 23.03 130.592 23.4942 130.592 24.0042C130.592 24.5065 130.68 24.9708 130.855 25.397C131.037 25.8232 131.289 26.1962 131.608 26.5158C131.936 26.8355 132.316 27.0829 132.75 27.2579C133.184 27.433 133.656 27.5205 134.166 27.5205Z" fill="black"/>
<path d="M63.3637 33.0084H63.946V41H63.3637V33.0084ZM58.0207 41H57.4385V33.0084H58.0207V41ZM63.4322 37.1983H57.9522V36.6845H63.4322V37.1983Z" fill="black"/>
<path d="M68.7098 36.6845H73.0367V37.1983H68.7098V36.6845ZM68.7783 40.4748H73.7103V41H68.196V33.0084H73.539V33.5335H68.7783V40.4748Z" fill="black"/>
<path d="M82.3221 40.7146V33.5335H78.2349L78.1664 35.6798C78.1436 36.3116 78.1055 36.9167 78.0522 37.4951C77.999 38.0735 77.919 38.5949 77.8125 39.0592C77.7059 39.5158 77.5575 39.885 77.3672 40.1666C77.1846 40.4482 76.9524 40.6004 76.6708 40.6233L75.9972 40.4748C76.3169 40.4977 76.5757 40.3873 76.7736 40.1438C76.9791 39.9002 77.1389 39.5539 77.2531 39.1048C77.3748 38.6558 77.4624 38.1344 77.5156 37.5408C77.5689 36.9471 77.607 36.3116 77.6298 35.6342L77.7097 33.0084H82.9043V40.7146H82.3221ZM75.7004 42.8267L75.7118 40.4748H84.1373V42.8267H83.5779V41H76.2712L76.2598 42.8267H75.7004Z" fill="black"/>
<path d="M87.3697 41V33.0084H90.5892C91.4112 33.0084 92.0582 33.1796 92.53 33.5221C93.0095 33.8646 93.2493 34.3707 93.2493 35.0405C93.2493 35.7027 93.0172 36.2012 92.5529 36.5361C92.0962 36.871 91.4987 37.0384 90.7605 37.0384L90.9546 36.8101C91.845 36.8101 92.5186 36.9851 92.9753 37.3353C93.432 37.6854 93.6603 38.1991 93.6603 38.8765C93.6603 39.5539 93.4244 40.0791 92.9525 40.452C92.4806 40.8173 91.7651 41 90.8061 41H87.3697ZM87.952 40.5091H90.8176C91.5558 40.5091 92.1152 40.3759 92.4958 40.1095C92.884 39.8355 93.078 39.4131 93.078 38.8423C93.078 38.2638 92.884 37.8452 92.4958 37.5864C92.1152 37.32 91.5558 37.1868 90.8176 37.1868H87.952V40.5091ZM87.952 36.7073H90.5778C91.24 36.7073 91.7499 36.5742 92.1076 36.3078C92.473 36.0338 92.6556 35.6342 92.6556 35.109C92.6556 34.5762 92.473 34.1767 92.1076 33.9103C91.7499 33.6363 91.24 33.4993 90.5778 33.4993H87.952V36.7073Z" fill="black"/>
<path d="M97.3022 41V33.0084H97.8845V40.0182L103.33 33.0084H103.844V41H103.262V34.0016L97.816 41H97.3022Z" fill="black"/>
<path d="M117.021 41L114.224 36.9813L114.726 36.6959L117.717 41H117.021ZM112.443 37.2097V36.6845H114.669V37.2097H112.443ZM114.749 37.0613L114.212 36.9471L116.838 33.0084H117.489L114.749 37.0613ZM107.659 41H106.963L109.943 36.6959L110.456 36.9813L107.659 41ZM112.626 41H112.055V33.0084H112.626V41ZM112.237 37.2097H110.011V36.6845H112.237V37.2097ZM109.931 37.0613L107.18 33.0084H107.842L110.456 36.9471L109.931 37.0613Z" fill="black"/>
<path d="M120.556 41V33.0084H121.139V40.0182L126.584 33.0084H127.098V41H126.516V34.0016L121.07 41H120.556Z" fill="black"/>
<path d="M131.347 41V33.0084H131.838L135.549 39.4131H135.286L138.985 33.0084H139.465L139.476 41H138.905L138.894 33.8874H139.054L135.549 39.9383H135.263L131.747 33.8874H131.918V41H131.347Z" fill="black"/>
<path d="M147.147 41.0571C146.553 41.0571 146.001 40.9581 145.491 40.7603C144.989 40.5548 144.547 40.2693 144.167 39.904C143.794 39.5311 143.505 39.101 143.299 38.6139C143.094 38.1192 142.991 37.5826 142.991 37.0042C142.991 36.4257 143.094 35.893 143.299 35.4058C143.505 34.9111 143.794 34.4811 144.167 34.1158C144.547 33.7428 144.989 33.4574 145.491 33.2595C146.001 33.054 146.553 32.9513 147.147 32.9513C147.74 32.9513 148.288 33.054 148.791 33.2595C149.301 33.4574 149.742 33.739 150.115 34.1043C150.488 34.4697 150.777 34.8997 150.983 35.3944C151.196 35.8815 151.302 36.4181 151.302 37.0042C151.302 37.5902 151.196 38.1306 150.983 38.6253C150.777 39.1124 150.488 39.5387 150.115 39.904C149.742 40.2693 149.301 40.5548 148.791 40.7603C148.288 40.9581 147.74 41.0571 147.147 41.0571ZM147.147 40.5205C147.657 40.5205 148.128 40.433 148.562 40.2579C148.996 40.0829 149.373 39.8355 149.692 39.5158C150.012 39.1962 150.26 38.8232 150.435 38.397C150.617 37.9708 150.709 37.5065 150.709 37.0042C150.709 36.4942 150.617 36.03 150.435 35.6113C150.26 35.1851 150.012 34.8122 149.692 34.4925C149.373 34.1728 148.996 33.9255 148.562 33.7504C148.128 33.5754 147.657 33.4879 147.147 33.4879C146.637 33.4879 146.165 33.5754 145.731 33.7504C145.297 33.9255 144.917 34.1728 144.589 34.4925C144.27 34.8122 144.018 35.1851 143.836 35.6113C143.661 36.03 143.573 36.4942 143.573 37.0042C143.573 37.5065 143.661 37.9708 143.836 38.397C144.018 38.8232 144.27 39.1962 144.589 39.5158C144.917 39.8355 145.297 40.0829 145.731 40.2579C146.165 40.433 146.637 40.5205 147.147 40.5205Z" fill="black"/>
<path d="M158.25 41.0571C157.656 41.0571 157.104 40.9581 156.594 40.7603C156.092 40.5548 155.654 40.2693 155.281 39.904C154.908 39.5387 154.619 39.1124 154.414 38.6253C154.208 38.1306 154.105 37.5902 154.105 37.0042C154.105 36.4181 154.208 35.8815 154.414 35.3944C154.619 34.8997 154.908 34.4697 155.281 34.1043C155.662 33.739 156.103 33.4574 156.606 33.2595C157.108 33.054 157.656 32.9513 158.25 32.9513C158.813 32.9513 159.338 33.0426 159.825 33.2253C160.32 33.4079 160.742 33.6857 161.092 34.0587L160.727 34.4354C160.385 34.1005 160.004 33.8608 159.585 33.7162C159.174 33.564 158.737 33.4879 158.273 33.4879C157.763 33.4879 157.287 33.5754 156.845 33.7504C156.412 33.9255 156.031 34.1728 155.704 34.4925C155.384 34.8122 155.133 35.1851 154.95 35.6113C154.775 36.0376 154.688 36.5018 154.688 37.0042C154.688 37.5065 154.775 37.9708 154.95 38.397C155.133 38.8232 155.384 39.1962 155.704 39.5158C156.031 39.8355 156.412 40.0829 156.845 40.2579C157.287 40.433 157.763 40.5205 158.273 40.5205C158.737 40.5205 159.174 40.4482 159.585 40.3036C160.004 40.1514 160.385 39.904 160.727 39.5615L161.092 39.9383C160.742 40.3112 160.32 40.5928 159.825 40.7831C159.338 40.9658 158.813 41.0571 158.25 41.0571Z" fill="black"/>
<path d="M165.797 41V33.3508L165.968 33.5335H162.92V33.0084H169.256V33.5335H166.208L166.379 33.3508V41H165.797Z" fill="black"/>
<path d="M172.181 41V33.0084H172.763V40.0182L178.209 33.0084H178.723V41H178.141V34.0016L172.695 41H172.181Z" fill="black"/>
</svg>
