<svg width="51" height="50" viewBox="0 0 51 50" fill="none" xmlns="http://www.w3.org/2000/svg">
<g clip-path="url(#clip0_287_120)">
<circle cx="25.7865" cy="24.9935" r="24.1712" transform="rotate(0.179195 25.7865 24.9935)" stroke="black" stroke-width="1.33163"/>
<path d="M17.5655 9.0896H14.7497C14.3229 9.0896 13.9137 9.25912 13.6119 9.56088C13.3102 9.86264 13.1406 10.2719 13.1406 10.6987V38.8571C13.1406 39.2839 13.3102 39.6932 13.6119 39.9949C13.9137 40.2967 14.3229 40.4662 14.7497 40.4662H36.4719C36.8987 40.4662 37.308 40.2967 37.6097 39.9949C37.9115 39.6932 38.081 39.2839 38.081 38.8571V10.6987C38.081 10.2719 37.9115 9.86264 37.6097 9.56088C37.308 9.25912 36.8987 9.0896 36.4719 9.0896H25.6108" stroke="black" stroke-width="1.33163" stroke-linecap="round" stroke-linejoin="round"/>
<path d="M15.9565 9.08965L17.0941 7.95204C17.3958 7.65027 17.805 7.48068 18.2317 7.48059H24.8064C25.0197 7.48059 25.2244 7.56535 25.3752 7.71623C25.5261 7.86711 25.6109 8.07174 25.6109 8.28512V28.3983L21.5882 24.3757L17.5656 28.3983V9.08965M17.5656 36.0413H33.6562M25.6109 13.5146H33.6562M25.6109 19.1462H33.6562M25.6109 24.7779H33.6562M17.5656 30.4096H33.6562" stroke="black" stroke-width="1.33163" stroke-linecap="round" stroke-linejoin="round"/>
</g>
<defs>
<clipPath id="clip0_287_120">
<rect width="49.7143" height="49.7143" fill="white" transform="translate(0.975586 0.142822)"/>
</clipPath>
</defs>
</svg>
