<svg width="53" height="50" viewBox="0 0 53 50" fill="none" xmlns="http://www.w3.org/2000/svg">
<g clip-path="url(#clip0_287_84)">
<circle cx="24.7516" cy="24.7916" r="23.7779" transform="rotate(0.179195 24.7516 24.7916)" stroke="black" stroke-width="2"/>
<g clip-path="url(#clip1_287_84)">
<path d="M37.5417 13.8751H12.0549C11.572 13.8751 11.109 14.0669 10.7676 14.4083C10.4262 14.7497 10.2344 15.2127 10.2344 15.6956V33.9005C10.2344 34.3833 10.4262 34.8463 10.7676 35.1877C11.109 35.5292 11.572 35.721 12.0549 35.721H25.7086L26.2274 35.0838L27.0739 34.0461L26.992 33.9005H12.0549V15.6956H37.5417V23.4873C38.2333 23.9349 38.848 24.4912 39.3622 25.1348V15.6956C39.3622 15.2127 39.1704 14.7497 38.829 14.4083C38.4876 14.0669 38.0246 13.8751 37.5417 13.8751Z" fill="black"/>
<path d="M14.7852 19.3365H30.2593V20.7929H14.7852V19.3365Z" fill="black"/>
<path d="M14.7852 22.9775H24.7979V24.4339H14.7852V22.9775Z" fill="black"/>
<path d="M14.7852 29.3492H23.8876V30.8056H14.7852V29.3492Z" fill="black"/>
<path d="M33.4094 24.0971C32.2445 24.0879 31.104 24.4302 30.1369 25.0794C29.1697 25.7286 28.4209 26.6545 27.9883 27.736C27.5557 28.8176 27.4594 30.0045 27.712 31.1416C27.9646 32.2787 28.5544 33.3132 29.4043 34.1098L27.6384 36.2671L28.4576 39.5531L31.7891 35.4934C32.8437 35.8052 33.9659 35.8052 35.0205 35.4934L38.352 39.5531L39.1712 36.2671L37.4053 34.1098C38.2552 33.3132 38.845 32.2787 39.0976 31.1416C39.3502 30.0045 39.2539 28.8176 38.8213 27.736C38.3887 26.6545 37.6399 25.7286 36.6727 25.0794C35.7056 24.4302 34.5651 24.0879 33.4002 24.0971H33.4094ZM33.4094 33.8185C32.6358 33.8078 31.8828 33.5686 31.2448 33.131C30.6069 32.6934 30.1126 32.077 29.824 31.3592C29.5354 30.6415 29.4655 29.8545 29.623 29.0971C29.7805 28.3397 30.1583 27.6458 30.7091 27.1025C31.2599 26.5593 31.959 26.1911 32.7185 26.0441C33.478 25.8971 34.264 25.9779 34.9776 26.2764C35.6913 26.5748 36.3008 27.0776 36.7296 27.7216C37.1583 28.3655 37.387 29.1218 37.3871 29.8954C37.3775 30.9424 36.9536 31.9429 36.2081 32.6781C35.4627 33.4134 34.4564 33.8234 33.4094 33.8185Z" fill="black"/>
</g>
</g>
<defs>
<clipPath id="clip0_287_84">
<rect width="52.057" height="49.5961" fill="white"/>
</clipPath>
<clipPath id="clip1_287_84">
<rect width="32.7688" height="32.7688" fill="white" transform="translate(8.41357 8.4136)"/>
</clipPath>
</defs>
</svg>
