<svg width="50" height="50" viewBox="0 0 50 50" fill="none" xmlns="http://www.w3.org/2000/svg">
<g clip-path="url(#clip0_287_93)">
<circle cx="24.7516" cy="24.7916" r="24.1137" transform="rotate(0.179195 24.7516 24.7916)" stroke="black" stroke-width="1.32847"/>
<path d="M24.5767 23.2481C29.3152 23.2481 33.1564 19.4069 33.1564 14.6685C33.1564 9.93003 29.3152 6.08878 24.5767 6.08878C19.8383 6.08878 15.9971 9.93003 15.9971 14.6685C15.9971 19.4069 19.8383 23.2481 24.5767 23.2481Z" stroke="black" stroke-width="1.32847"/>
<path d="M33.1563 26.6801H33.7603C35.0148 26.6804 36.226 27.1388 37.1663 27.9692C38.1066 28.7996 38.7114 29.9447 38.8669 31.1895L39.5378 36.5501C39.5982 37.033 39.5551 37.5233 39.4115 37.9883C39.2679 38.4533 39.0271 38.8824 38.705 39.2472C38.3828 39.612 37.9868 39.9041 37.5432 40.1042C37.0995 40.3042 36.6184 40.4076 36.1317 40.4075H13.0215C12.5348 40.4076 12.0537 40.3042 11.61 40.1042C11.1664 39.9041 10.7704 39.612 10.4482 39.2472C10.1261 38.8824 9.88525 38.4533 9.74165 37.9883C9.59806 37.5233 9.55501 37.033 9.61535 36.5501L10.2846 31.1895C10.4402 29.9441 11.0454 28.7985 11.9865 27.9681C12.9275 27.1376 14.1396 26.6796 15.3946 26.6801H15.9969" stroke="black" stroke-width="1.32847" stroke-linecap="round" stroke-linejoin="round"/>
</g>
<defs>
<clipPath id="clip0_287_93">
<rect width="49.5961" height="49.5961" fill="white"/>
</clipPath>
</defs>
</svg>
