<svg width="50" height="50" viewBox="0 0 50 50" fill="none" xmlns="http://www.w3.org/2000/svg">
<g clip-path="url(#clip0_287_104)">
<path d="M31.2408 35.5251L30.367 28.529C30.2431 27.538 29.7616 26.6265 29.0128 25.9657C28.264 25.3049 27.2996 24.9404 26.3009 24.9408H23.2916C22.2935 24.9411 21.3297 25.3058 20.5815 25.9666C19.8333 26.6273 19.3521 27.5385 19.2283 28.529L18.3531 35.5251C18.3051 35.9095 18.3394 36.2997 18.4537 36.6698C18.568 37.0399 18.7598 37.3814 19.0163 37.6717C19.2727 37.962 19.588 38.1944 19.9412 38.3535C20.2944 38.5126 20.6774 38.5948 21.0647 38.5945H28.5306C28.9178 38.5946 29.3006 38.5123 29.6537 38.3531C30.0067 38.1939 30.3218 37.9615 30.5781 37.6712C30.8344 37.3809 31.0261 37.0395 31.1403 36.6695C31.2546 36.2995 31.2888 35.9094 31.2408 35.5251Z" stroke="black" stroke-width="1.32847" stroke-linecap="round" stroke-linejoin="round"/>
<path d="M24.7978 19.4793C27.06 19.4793 28.8939 17.6454 28.8939 15.3832C28.8939 13.121 27.06 11.2871 24.7978 11.2871C22.5355 11.2871 20.7017 13.121 20.7017 15.3832C20.7017 17.6454 22.5355 19.4793 24.7978 19.4793Z" stroke="black" stroke-width="1.32847"/>
<path d="M13.8748 23.5754C15.3829 23.5754 16.6055 22.3528 16.6055 20.8446C16.6055 19.3365 15.3829 18.1139 13.8748 18.1139C12.3666 18.1139 11.144 19.3365 11.144 20.8446C11.144 22.3528 12.3666 23.5754 13.8748 23.5754Z" stroke="black" stroke-width="1.32847"/>
<path d="M35.7205 23.5754C37.2286 23.5754 38.4512 22.3528 38.4512 20.8446C38.4512 19.3365 37.2286 18.1139 35.7205 18.1139C34.2123 18.1139 32.9897 19.3365 32.9897 20.8446C32.9897 22.3528 34.2123 23.5754 35.7205 23.5754Z" stroke="black" stroke-width="1.32847"/>
<path d="M13.875 27.6715H13.4572C12.8108 27.6714 12.1853 27.9007 11.692 28.3184C11.1988 28.7362 10.8697 29.3154 10.7634 29.953L10.3087 32.6838C10.2434 33.075 10.2642 33.4758 10.3695 33.8582C10.4749 34.2406 10.6622 34.5954 10.9186 34.8981C11.175 35.2007 11.4943 35.4439 11.8541 35.6106C12.214 35.7774 12.6059 35.8638 13.0026 35.8637H17.9711M35.7209 27.6715H36.1387C36.7851 27.6714 37.4106 27.9007 37.9039 28.3184C38.3972 28.7362 38.7263 29.3154 38.8326 29.953L39.2873 32.6838C39.3525 33.075 39.3317 33.4758 39.2264 33.8582C39.1211 34.2406 38.9337 34.5954 38.6773 34.8981C38.4209 35.2007 38.1017 35.4439 37.7418 35.6106C37.3819 35.7774 36.99 35.8638 36.5934 35.8637H31.6248" stroke="black" stroke-width="1.32847" stroke-linecap="round" stroke-linejoin="round"/>
<circle cx="24.8556" cy="24.9982" r="24.1137" transform="rotate(0.179195 24.8556 24.9982)" stroke="black" stroke-width="1.32847"/>
</g>
<defs>
<clipPath id="clip0_287_104">
<rect width="49.5961" height="49.5961" fill="white" transform="translate(0 0.142822)"/>
</clipPath>
</defs>
</svg>
