<svg width="51" height="50" viewBox="0 0 51 50" fill="none" xmlns="http://www.w3.org/2000/svg">
<g clip-path="url(#clip0_287_100)">
<circle cx="25.2985" cy="24.7916" r="24.1137" transform="rotate(0.179195 25.2985 24.7916)" stroke="black" stroke-width="1.32847"/>
<path d="M30.2466 16.9959L30.4011 17.3092L30.7468 17.3594L40.9559 18.8431C40.9562 18.8432 40.9564 18.8432 40.9567 18.8432C41.3035 18.8952 41.5341 19.2129 41.4829 19.5447L41.4828 19.5447L41.4818 19.552C41.4626 19.686 41.3994 19.8103 41.3009 19.9071C41.3007 19.9072 41.3006 19.9074 41.3004 19.9076L33.9137 27.1093L33.6637 27.353L33.7227 27.6972L35.4682 37.8682L35.4683 37.8687C35.5263 38.2053 35.3002 38.5266 34.9603 38.5852L34.9594 38.5854C34.8243 38.6089 34.685 38.5866 34.5689 38.5248L34.5659 38.5232L25.4325 33.7213L25.1234 33.5587L24.8143 33.7213L15.681 38.5232L15.68 38.5237C15.5774 38.5779 15.4617 38.6022 15.346 38.594C15.2303 38.5857 15.1192 38.5452 15.0254 38.4771C14.9315 38.4089 14.8587 38.3158 14.815 38.2083C14.7714 38.1009 14.7587 37.9833 14.7785 37.869L14.7787 37.8682L16.5241 27.6972L16.5832 27.353L16.3331 27.1093L8.94522 19.9064L8.94517 19.9063C8.8266 19.7907 8.75877 19.6328 8.75657 19.4672C8.75439 19.3021 8.81769 19.1428 8.9326 19.0242C9.02933 18.9259 9.15348 18.8628 9.28731 18.8437L9.2889 18.8434L19.5001 17.3594L19.8457 17.3092L20.0002 16.9959L24.5633 7.74514C24.5635 7.7447 24.5637 7.74425 24.564 7.7438C24.7196 7.43428 25.0953 7.30988 25.4005 7.46055L25.4012 7.46093C25.5231 7.52087 25.6217 7.61954 25.6817 7.74136L25.682 7.74193L30.2466 16.9959Z" stroke="black" stroke-width="1.32847"/>
</g>
<defs>
<clipPath id="clip0_287_100">
<rect width="49.5961" height="49.5961" fill="white" transform="translate(0.546875)"/>
</clipPath>
</defs>
</svg>
