<svg width="101" height="80" viewBox="0 0 101 80" fill="none" xmlns="http://www.w3.org/2000/svg">
<path d="M9.19009 79L4.28964 72.3439L5.85238 71.3792L11.3895 79H9.19009ZM0.103027 79V65.4948H1.99375V79H0.103027ZM1.41496 73.0577V71.3599H5.7945V73.0577H1.41496ZM6.02602 72.4596L4.25105 72.1895L9.09362 65.4948H11.158L6.02602 72.4596Z" fill="white"/>
<path d="M14.7176 79V65.4948H20.5248C21.9911 65.4948 23.1422 65.7906 23.9783 66.3823C24.8143 66.974 25.2323 67.8357 25.2323 68.9676C25.2323 70.0737 24.8336 70.9226 24.0361 71.5143C23.2387 72.0931 22.1904 72.3825 20.8914 72.3825L21.2386 71.8037C22.7435 71.8037 23.8947 72.1059 24.6921 72.7104C25.5024 73.3021 25.9076 74.1703 25.9076 75.315C25.9076 76.4726 25.4831 77.3794 24.6342 78.0353C23.7982 78.6785 22.5506 79 20.8914 79H14.7176ZM16.6276 77.4758H20.8528C21.8818 77.4758 22.6535 77.2893 23.168 76.9163C23.6953 76.5305 23.959 75.9453 23.959 75.1607C23.959 74.3761 23.6953 73.8037 23.168 73.4436C22.6535 73.0834 21.8818 72.9034 20.8528 72.9034H16.6276V77.4758ZM16.6276 71.4371H20.3897C21.3287 71.4371 22.0425 71.2506 22.5313 70.8776C23.0329 70.5046 23.2837 69.958 23.2837 69.2377C23.2837 68.5045 23.0329 67.9515 22.5313 67.5785C22.0425 67.2055 21.3287 67.019 20.3897 67.019H16.6276V71.4371Z" fill="white"/>
<path d="M28.61 79L34.7259 65.4948H36.6359L42.7711 79H40.7454L35.2854 66.5752H36.0571L30.5972 79H28.61ZM31.2146 75.6237L31.7355 74.0803H39.337L39.8965 75.6237H31.2146Z" fill="white"/>
<path d="M46.4525 79V65.4948H51.7195C52.9028 65.4948 53.9125 65.6813 54.7485 66.0543C55.5846 66.4273 56.2277 66.9675 56.6779 67.6749C57.128 68.3823 57.3531 69.2248 57.3531 70.2023C57.3531 71.1798 57.128 72.0223 56.6779 72.7297C56.2277 73.4243 55.5846 73.9645 54.7485 74.3504C53.9125 74.7234 52.9028 74.9099 51.7195 74.9099H47.5136L48.3818 74.0031V79H46.4525ZM48.3818 74.196L47.5136 73.2314H51.6616C52.8964 73.2314 53.8289 72.9677 54.4591 72.4403C55.1023 71.913 55.4238 71.167 55.4238 70.2023C55.4238 69.2377 55.1023 68.4917 54.4591 67.9643C53.8289 67.437 52.8964 67.1733 51.6616 67.1733H47.5136L48.3818 66.2087V74.196Z" fill="white"/>
<path d="M63.7129 79V66.6717L64.1952 67.1733H59.1019V65.4948H70.234V67.1733H65.1406L65.6036 66.6717V79H63.7129Z" fill="white"/>
<path d="M71.3797 79L77.4956 65.4948H79.4056L85.5408 79H83.5151L78.0551 66.5752H78.8268L73.3669 79H71.3797ZM73.9842 75.6237L74.5052 74.0803H82.1067L82.6662 75.6237H73.9842Z" fill="white"/>
<path d="M88.5855 79.1543C88.3926 79.1543 88.1997 79.1415 88.0067 79.1158C87.8138 79.09 87.6016 79.0514 87.37 79L87.5051 77.2829C87.7109 77.3344 87.9167 77.3601 88.1225 77.3601C88.6884 77.3601 89.1386 77.135 89.473 76.6848C89.8074 76.2347 90.0518 75.553 90.2061 74.6398C90.3733 73.7265 90.4827 72.5754 90.5341 71.1863L90.7463 65.4948H100.258V79H98.3671V66.6717L98.8302 67.1733H91.9811L92.4056 66.6524L92.2512 71.1284C92.2126 72.4661 92.1226 73.6365 91.9811 74.6398C91.8396 75.643 91.6274 76.479 91.3444 77.1479C91.0615 77.8167 90.6949 78.3183 90.2447 78.6527C89.8074 78.9871 89.2543 79.1543 88.5855 79.1543Z" fill="white"/>
<path d="M70.5455 37.6518V61.0907L63.2308 53.8595V31.6674L70.5455 37.6518Z" fill="#1B92FF"/>
<path d="M38.7643 28.9288L34.7285 25.683L34.7285 42.2077L38.7642 46.1297L38.7643 28.9288Z" fill="#1B92FF"/>
<path d="M57.9337 25.0491L57.9339 54.4386L52.8892 59.0959L52.8891 21.1947L57.9337 25.0491Z" fill="#1B92FF"/>
<path d="M51.3757 8.49057L46.8355 4.73765L46.8358 27.6477L43.8088 24.6857V52.1438L51.3757 61.0908L51.3757 8.49057Z" fill="#1B92FF"/>
<path d="M43.8088 24.6857L38.5117 29.1739V7.23115C38.5117 7.23115 41.5904 4.65233 43.5564 2.9922C44.9374 1.826 47.0876 0 47.0876 0V5.23635L43.5564 8.22855L43.8088 24.6857Z" fill="#1B92FF"/>
<path d="M26.9093 32.4155V50.3687L28.1704 49.1219V31.1687L26.9093 32.4155Z" fill="#1B92FF"/>
<path d="M29.684 47.8752V29.922L30.9451 28.6752V46.1298L29.684 47.3765L29.684 47.8752Z" fill="#1B92FF"/>
<path d="M32.206 44.3842V27.9272L33.4672 26.6804V44.6336L33.4671 43.1375L32.206 44.3842Z" fill="#1B92FF"/>
<path d="M58.4383 34.9576V53.6102L59.9517 52.3149V33.6622L58.4383 34.9576Z" fill="#1B92FF"/>
<path d="M60.9605 32.898L62.4739 31.6674L62.4737 53.1115L60.9603 51.8809L60.9605 32.898Z" fill="#1B92FF"/>
<path d="M34.2239 50.618H31.7016V53.1115H34.2239V50.618Z" fill="#1B92FF"/>
<path d="M37.2509 50.618H34.7286V53.1115H37.2509V50.618Z" fill="#1B92FF"/>
<path d="M34.7286 53.6102H37.2509V56.1037H34.7286V53.6102Z" fill="#1B92FF"/>
<path d="M34.224 53.6102H31.7017V56.1037H34.224V53.6102Z" fill="#1B92FF"/>
<path d="M60.7771 55.605H58.9427V57.4184H60.7771V55.605Z" fill="#1B92FF"/>
<path d="M62.9787 55.605H61.1443V57.4185H62.9787V55.605Z" fill="#1B92FF"/>
<path d="M61.1443 57.7811H62.9787V59.5946H61.1443V57.7811Z" fill="#1B92FF"/>
<path d="M60.7771 57.7811H58.9427V59.5946H60.7771V57.7811Z" fill="#1B92FF"/>
</svg>
