<svg width="100" height="79" viewBox="0 0 100 79" fill="none" xmlns="http://www.w3.org/2000/svg">
<path fill-rule="evenodd" clip-rule="evenodd" d="M36.9069 45.3929L50 62L63.0931 45.3929C65.6222 42.1852 67 38.1994 67 34.0914V33.25C67 23.7231 59.3888 16 50 16C40.6112 16 33 23.7231 33 33.25V34.0914C33 38.1994 34.3779 42.1852 36.9069 45.3929ZM50 39C53.1296 39 55.6667 36.4256 55.6667 33.25C55.6667 30.0744 53.1296 27.5 50 27.5C46.8704 27.5 44.3333 30.0744 44.3333 33.25C44.3333 36.4256 46.8704 39 50 39Z" fill="white"/>
</svg>
