<svg width="100" height="79" viewBox="0 0 100 79" fill="none" xmlns="http://www.w3.org/2000/svg">
<path d="M48.4181 29.644L42.3206 22.6056C41.6177 21.7945 40.3289 21.7981 39.5125 22.6164L34.4982 27.6397C33.0058 29.1339 32.5787 31.3526 33.442 33.1316C38.5998 43.8107 47.2124 52.4354 57.8842 57.6081C59.6614 58.4714 61.8783 58.0442 63.3707 56.5501L68.4318 51.4799C69.2519 50.6598 69.2537 49.3639 68.4354 48.661L61.3701 42.5959C60.6311 41.9615 59.483 42.0444 58.7422 42.787L56.2837 45.2491C56.1579 45.381 55.9922 45.4679 55.8121 45.4966C55.6321 45.5252 55.4476 45.494 55.287 45.4077C51.2685 43.0936 47.935 39.7558 45.6262 35.7342C45.5397 35.5734 45.5084 35.3886 45.5371 35.2082C45.5657 35.0279 45.6527 34.8619 45.7848 34.7357L48.236 32.2827C48.9786 31.5365 49.0597 30.3847 48.4181 29.644Z" fill="white" stroke="white" stroke-width="0.721" stroke-linecap="round" stroke-linejoin="round"/>
</svg>
