<svg width="70" height="70" viewBox="0 0 70 70" fill="none" xmlns="http://www.w3.org/2000/svg">
<path d="M55.7817 49.2985H50.7615C48.8608 49.2985 48.2733 47.7872 44.859 44.3268C41.8846 41.4469 40.5691 41.0598 39.8388 41.0598C38.8136 41.0598 38.521 41.3524 38.521 42.767V47.3011C38.521 48.5221 38.1316 49.2525 34.9131 49.2525C28.4207 48.817 22.8407 45.276 19.6015 40.1153L19.5531 40.0346C15.7931 35.3646 13.0216 29.7363 11.6507 23.5803L11.6001 23.3107C11.6001 22.5804 11.8927 21.8961 13.3072 21.8961H18.3274C19.5945 21.8961 20.083 22.4813 20.5737 23.8452C23.0573 31.0149 27.2043 37.3045 28.9115 37.3045C29.545 37.3045 29.8376 37.0119 29.8376 35.4038V27.9876C29.6418 24.5732 27.8378 24.283 27.8378 23.0642C27.8586 22.4122 28.3931 21.8915 29.0474 21.8915C29.0681 21.8915 29.0866 21.8915 29.1073 21.8938H29.105H37.005C38.0786 21.8938 38.468 22.479 38.468 23.7461V33.745C38.468 34.8163 38.9564 35.208 39.249 35.208C39.8826 35.208 40.4217 34.8163 41.5897 33.6482C44.018 30.6831 46.0938 27.2918 47.6766 23.6356L47.7826 23.3591C48.1167 22.5228 48.9184 21.9422 49.8561 21.9422C49.8999 21.9422 49.9413 21.9445 49.9851 21.9468H49.9782H54.9984C56.5097 21.9468 56.853 22.7232 56.5097 23.7991C54.4961 28.2341 52.2337 32.0447 49.6119 35.5743L49.7317 35.4038C49.1972 36.2816 49.0013 36.6709 49.7317 37.6501C50.2662 38.3804 52.024 39.8918 53.1944 41.258C54.8878 42.9329 56.307 44.882 57.3783 47.0338L57.4359 47.1605C57.9243 48.5705 57.1917 49.3031 55.7771 49.3031L55.7817 49.2985ZM45.1539 0H23.942C4.58243 0 0 4.58243 0 23.942V45.1539C0 64.5134 4.58243 69.0958 23.942 69.0958H45.1539C64.5134 69.0958 69.0958 64.5134 69.0958 45.1539V23.942C69.0958 4.58243 64.4627 0 45.1539 0Z" fill="white"/>
</svg>
