<svg width="52" height="52" viewBox="0 0 52 52" fill="none" xmlns="http://www.w3.org/2000/svg">
<path d="M22.3843 11.6019L13.9273 1.83997C12.9524 0.715034 11.165 0.720033 10.0325 1.85497L3.07796 8.82205C1.00808 10.8944 0.415615 13.9717 1.61304 16.4391C8.76666 31.2506 20.712 43.2127 35.5135 50.3871C37.9784 51.5845 41.0532 50.992 43.1231 48.9196L50.1426 41.8876C51.2801 40.7501 51.2826 38.9527 50.1476 37.9778L40.3482 29.5658C39.3233 28.6859 37.7309 28.8008 36.7034 29.8308L33.2937 33.2456C33.1191 33.4285 32.8893 33.5491 32.6396 33.5889C32.3898 33.6286 32.134 33.5853 31.9112 33.4656C26.3377 30.256 21.7143 25.6266 18.512 20.0489C18.3921 19.8258 18.3487 19.5695 18.3884 19.3193C18.4282 19.0691 18.5489 18.8389 18.732 18.664L22.1318 15.2617C23.1618 14.2267 23.2743 12.6293 22.3843 11.6019Z" fill="black" stroke="black" stroke-linecap="round" stroke-linejoin="round"/>
</svg>
