<svg width="60" height="60" viewBox="0 0 60 60" fill="none" xmlns="http://www.w3.org/2000/svg">
<path d="M47.2818 42.0036H43.1962C41.6493 42.0036 41.1712 40.7736 38.3924 37.9573C35.9718 35.6136 34.9012 35.2986 34.3068 35.2986C33.4724 35.2986 33.2343 35.5367 33.2343 36.688V40.3779C33.2343 41.3717 32.9174 41.9661 30.298 41.9661C25.0143 41.6117 20.473 38.7298 17.8368 34.5298L17.7974 34.4642C14.7374 30.6636 12.4818 26.083 11.3662 21.073L11.3249 20.8536C11.3249 20.2592 11.563 19.7023 12.7143 19.7023H16.7999C17.8312 19.7023 18.2287 20.1786 18.628 21.2886C20.6493 27.1236 24.0243 32.2423 25.4137 32.2423C25.9293 32.2423 26.1674 32.0042 26.1674 30.6954V24.6598C26.008 21.8811 24.5399 21.6448 24.5399 20.653C24.5568 20.1223 24.9918 19.6986 25.5243 19.6986C25.5412 19.6986 25.5562 19.6986 25.573 19.7004H25.5712H32.0005C32.8743 19.7004 33.1912 20.1767 33.1912 21.2079V29.3454C33.1912 30.2173 33.5887 30.5361 33.8268 30.5361C34.3424 30.5361 34.7812 30.2173 35.7318 29.2667C37.708 26.8536 39.3974 24.0936 40.6855 21.1179L40.7718 20.8929C41.0437 20.2123 41.6962 19.7398 42.4593 19.7398C42.4949 19.7398 42.5287 19.7417 42.5643 19.7436H42.5587H46.6443C47.8743 19.7436 48.1537 20.3754 47.8743 21.2511C46.2355 24.8604 44.3943 27.9617 42.2605 30.8342L42.358 30.6954C41.923 31.4098 41.7637 31.7267 42.358 32.5236C42.793 33.118 44.2237 34.3479 45.1762 35.4598C46.5543 36.823 47.7093 38.4092 48.5812 40.1604L48.628 40.2636C49.0255 41.4111 48.4293 42.0073 47.278 42.0073L47.2818 42.0036ZM38.6324 1.88232H21.3693C5.61365 1.88232 1.88428 5.6117 1.88428 21.3673V38.6305C1.88428 54.3861 5.61365 58.1155 21.3693 58.1155H38.6324C54.388 58.1155 58.1174 54.3861 58.1174 38.6305V21.3673C58.1174 5.6117 54.3468 1.88232 38.6324 1.88232Z" fill="black"/>
</svg>
