<svg width="84" height="119" viewBox="0 0 84 119" fill="none" xmlns="http://www.w3.org/2000/svg">
<path d="M69.7415 61.236L83.7103 72.7964V118.095L69.7415 104.126V61.236ZM22.9799 55.9292H22.9833L22.9778 55.9248L22.4973 55.5338V13.9829L22.4995 13.981L22.5122 13.9702L22.5622 13.9278L22.7554 13.7641L23.4733 13.1554C24.0837 12.6379 24.9366 11.9144 25.907 11.0906C27.8477 9.44292 30.2581 7.39408 32.1368 5.78928C33.4566 4.66194 35.1439 3.2157 36.5012 2.0513C37.1799 1.4691 37.776 0.957357 38.2026 0.591164L38.7042 0.160424L38.8391 0.0445258L38.8741 0.0145245L38.8765 0.012424V9.55013L38.4041 9.1551L38.4004 9.15948L38.3967 9.16386L38.3947 9.16631L38.3947 10.534L32.1294 15.9042L32.1273 15.9018L32.1274 15.9087L32.6098 47.7232L22.9799 55.977V55.9292ZM38.4061 9.17169L38.8765 9.56501V10.121L38.4061 10.5242L38.4061 9.17169ZM38.4061 10.5392L38.8859 10.128L38.8879 10.1303V10.1236V9.57456L47.0721 16.4178L47.0722 118.093L32.6212 100.81V47.7395L38.3969 53.4564L38.4009 53.4523L38.4049 53.4483L38.4066 53.4466L38.4061 10.5392ZM22.9685 55.9319V55.9868L22.4973 56.3907V55.5485L22.9685 55.9319ZM22.4916 56.4031H22.4973H22.5003L22.9685 56.0018L22.9684 89.1708L15.2666 81.5995L15.2667 49.666L22.4858 55.5392V56.4031H22.4916ZM59.6064 105.246L49.9763 114.239L49.9759 40.9882L59.6061 48.4312L59.6064 105.246ZM0.322113 62.6725L2.72109 60.2735V94.967L0.322113 97.366V62.6725ZM5.62526 57.8517L8.02424 55.4528V89.1823L5.62526 91.5812V57.8517ZM12.8445 83.3969V83.3995H12.8443H12.842L10.4455 85.7959V53.9951L12.8445 51.5961V83.3969ZM60.5819 67.5875L63.4629 65.093V101.14L60.5819 103.634V67.5875ZM68.2835 61.2359L68.2831 102.671L65.4021 100.301L65.4024 63.6056L68.2835 61.2359ZM9.48145 97.8675H14.2908V102.677H9.48145V97.8675ZM15.2668 97.8675H20.0762V102.677H15.2668V97.8675ZM15.2668 103.652H20.0762V108.462H15.2668V103.652ZM9.48165 103.652H14.291V108.462H9.48165V103.652ZM61.5459 107.509H65.0405V111.004H61.5459V107.509ZM65.7537 107.509H69.2483V111.004H65.7537V107.509ZM65.7537 111.716H69.2483V115.211H65.7537V111.716ZM61.546 111.716H65.0406V115.211H61.546V111.716Z" fill="white" stroke="white" stroke-width="0.0114125"/>
</svg>
